<svg fill="none" viewBox="0 0 22 22" xmlns="http://www.w3.org/2000/svg"><path clip-rule="evenodd" d="m5 2v-1c0-.55228.44771-1 1-1 .55228 0 1 .44772 1 1v1h1.9828c.0106-.00017.0212-.00017.0319 0h1.9853c.5523 0 1 .44772 1 1s-.4477 1-1 1h-1.1553c-.4961 2.53262-1.5635 4.87025-3.19363 7.0085 1.06908 1.1855 2.35593 2.2294 3.86353 3.134.4736.2842.6272.8984.343 1.372-.2841.4736-.8984.6271-1.372.343-1.5922-.9553-2.97206-2.0593-4.13691-3.3101-1.07723 1.1531-2.33355 2.2421-3.76745 3.2663-.44941.321-1.07397.217-1.39497-.2325-.321013-.4494-.216921-1.0739.23249-1.3949 1.40923-1.0066 2.62388-2.0716 3.64584-3.1959-.80733-1.1102-1.47212-2.31692-1.99296-3.61901-.20512-.51278.0443-1.09475.55708-1.29987.51279-.20511 1.09476.04431 1.29987.55709.39021.97551.87152 1.88989 1.44481 2.74369 1.19161-1.67005 1.99906-3.4599 2.42778-5.3723h-6.80118c-.55229 0-1.000001-.44772-1.000001-1s.447711-1 1.000001-1zm13.3901 15h-4.7802l-1.6766 4.359c-.1982.5155-.7768.7726-1.2923.5743-.5155-.1982-.7726-.7768-.5743-1.2923l5-12.99998c.3287-.85469 1.5379-.85469 1.8666 0l5 12.99998c.1983.5155-.0588 1.0941-.5743 1.2923-.5155.1983-1.0941-.0588-1.2923-.5743zm-.7692-2-1.6209-4.2143-1.6209 4.2143z" fill="#758ca3" fill-rule="evenodd"/></svg>